<svg width="24" height="15" viewBox="0 0 24 15" fill="none" xmlns="http://www.w3.org/2000/svg">
<path d="M0.90625 10.3438V9.84375V4.21875V3.71875H1.40625H6.47398C6.52872 3.64488 6.59785 3.55442 6.68146 3.45205C6.90594 3.17721 7.23453 2.81684 7.67478 2.45398C8.55749 1.72645 9.8916 0.987864 11.7237 0.912578L13.0035 0.859989L12.0978 1.76571L8.96465 4.8989C8.88532 4.97823 8.88532 5.10686 8.96465 5.1862C9.55227 5.77381 10.3233 6.06783 11.0969 6.0678L0.90625 10.3438ZM0.90625 10.3438H1.40625M0.90625 10.3438H1.40625M1.40625 10.3438H6.4737C6.53203 10.4224 6.60659 10.5196 6.69752 10.63C6.93366 10.9166 7.2802 11.2918 7.74415 11.6652C8.67479 12.4141 10.0804 13.1562 12 13.1562C13.9641 13.1562 15.8444 12.2952 17.1319 10.8309L17.3822 10.5461L17.1756 10.2282L13.9703 5.29746L13.6382 4.78651M1.40625 10.3438L13.6382 4.78651M13.6382 4.78651L13.2019 5.21207M13.6382 4.78651L13.2019 5.21207M13.2019 5.21207C12.6178 5.78192 11.8584 6.06771 11.097 6.0678L13.2019 5.21207ZM17.5805 3.13096L17.7305 3.3125H17.966H23C23.2761 3.3125 23.5 3.53636 23.5 3.8125V10.25C23.5 10.5261 23.2761 10.75 23 10.75H17.966H17.7305L17.5805 10.9315C16.2149 12.5845 14.1521 13.5625 12 13.5625C9.84792 13.5625 7.78509 12.5845 6.41945 10.9315L6.26947 10.75H6.03398H1C0.723858 10.75 0.5 10.5261 0.5 10.25V3.8125C0.5 3.53636 0.723858 3.3125 1 3.3125H6.03398H6.26947L6.41945 3.13096C7.78509 1.47799 9.84792 0.5 12 0.5C14.1521 0.5 16.2149 1.47799 17.5805 3.13096ZM22.5938 10.3438H23.0938V9.84375V4.2187V3.7187H22.5938H17.5237C17.4859 3.66784 17.4412 3.60864 17.3895 3.54306C17.2197 3.32727 16.9763 3.04328 16.6518 2.74145C16.0025 2.1374 15.0272 1.46081 13.6677 1.11581L13.3921 1.04589L13.1911 1.2469L9.8343 4.60376L9.33382 5.10426L9.9728 5.4087C10.9416 5.87026 12.1393 5.70181 12.9422 4.89888C12.9422 4.89888 12.9422 4.89887 12.9422 4.89887L13.6683 4.17277L14.8062 5.31077L14.8063 5.31079C15.2984 5.80292 15.9552 6.07503 16.6514 6.07503C17.0515 6.07503 17.4399 5.98507 17.7922 5.81364C17.9011 5.76063 18.0156 5.73717 18.1095 5.7419C18.1994 5.74643 18.253 5.77448 18.2865 5.80795C18.3283 5.84977 18.3427 5.89892 18.3417 5.93261C18.3412 5.94828 18.3376 5.95787 18.335 5.96287C18.3329 5.9668 18.3289 5.97292 18.3173 5.98061L18.5945 6.39678L18.3173 5.98061C17.8287 6.30598 17.2549 6.48128 16.6514 6.48128C16.497 6.48128 16.3444 6.4696 16.1945 6.44698L15.0943 6.28107L15.7007 7.2139L17.5874 10.1163L17.7352 10.3438H18.0066H22.5938Z" stroke="#021B51"/>
</svg>
